<svg xmlns="http://www.w3.org/2000/svg" xmlns:xlink="http://www.w3.org/1999/xlink" fill="none" version="1.1" width="1413" height="1079" viewBox="0 0 1413 1079"><defs><filter id="master_svg0_74_6497" filterUnits="objectBoundingBox" color-interpolation-filters="sRGB" x="-0.011585807385952208" y="-0.011461318051575931" width="1.0231716147719043" height="1.0305635148042025"><feFlood flood-opacity="0" result="BackgroundImageFix"/><feColorMatrix in="SourceAlpha" type="matrix" values="0 0 0 0 0 0 0 0 0 0 0 0 0 0 0 0 0 0 127 0"/><feOffset dy="4" dx="0"/><feGaussianBlur stdDeviation="4"/><feColorMatrix type="matrix" values="0 0 0 0 0 0 0 0 0 0 0 0 0 0 0 0 0 0 0.25 0"/><feBlend mode="normal" in2="BackgroundImageFix" result="effect1_dropShadow"/><feBlend mode="normal" in="SourceGraphic" in2="effect1_dropShadow" result="shape"/><feGaussianBlur in="BackgroundImageFix" stdDeviation="20"/><feComposite in2="SourceAlpha" operator="in" result="effect2_foregroundBlur"/><feBlend mode="normal" in="SourceGraphic" in2="effect2_foregroundBlur" result="shape"/></filter><linearGradient x1="0.10472974181175232" y1="-0.0375722274184227" x2="1.1827626005281615" y2="0.7132237043652654" id="master_svg1_13_0696"><stop offset="0%" stop-color="#FFFFFF" stop-opacity="1"/><stop offset="100%" stop-color="#FFFFFF" stop-opacity="0"/></linearGradient><linearGradient x1="1" y1="8.724515510039055e-8" x2="0.2894417634169227" y2="0.8168377341124795" id="master_svg2_13_0698"><stop offset="0%" stop-color="#A8A8A8" stop-opacity="1"/><stop offset="100%" stop-color="#A8A8A8" stop-opacity="0"/></linearGradient></defs><g filter="url(#master_svg0_74_6497)"><path d="M16,1035C16,1048.25,26.7452,1059,40,1059L1373,1059C1386.26,1059,1397,1048.25,1397,1035L1397,36C1397,22.7452,1386.26,12,1373,12L40,12C26.7452,12,16,22.7452,16,36L16,1035Z" fill="url(#master_svg1_13_0696)" fill-opacity="0.10000000149011612"/><path d="M16,1035C16,1048.25,26.7452,1059,40,1059L1373,1059C1386.26,1059,1397,1048.25,1397,1035L1397,36C1397,22.7452,1386.26,12,1373,12L40,12C26.7452,12,16,22.7452,16,36L16,1035ZM17,1035Q17,1044.53,23.736539999999998,1051.26Q30.473100000000002,1058,40,1058L1373,1058Q1382.53,1058,1389.26,1051.26Q1396,1044.53,1396,1035L1396,36Q1396,26.4738,1389.26,19.73655Q1382.53,13,1373,13L40,13Q30.473100000000002,13,23.736539999999998,19.73655Q16.999995,26.473100000000002,16.999997,36L17,1035Z" fill-rule="evenodd" fill="url(#master_svg2_13_0698)" fill-opacity="1"/></g></svg>