<svg xmlns="http://www.w3.org/2000/svg" xmlns:xlink="http://www.w3.org/1999/xlink" fill="none" version="1.1" width="18" height="20" viewBox="0 0 18 20"><g><path d="M16,8L17,8C17.5523,8,18,8.4477,18,9L18,19C18,19.5523,17.5523,20,17,20L1,20C0.44772,20,0,19.5523,0,19L0,9C0,8.4477,0.44772,8,1,8L2,8L2,7C2,3.13401,5.13401,0,9,0C12.866,0,16,3.13401,16,7L16,8ZM14,8L14,7C14,4.23858,11.7614,2,9,2C6.23858,2,4,4.23858,4,7L4,8L14,8ZM8,12L8,16L10,16L10,12L8,12Z" fill="#FFFFFF" fill-opacity="1" style="mix-blend-mode:passthrough"/></g></svg>